<svg version="1.1" id="Layer_1" xmlns="http://www.w3.org/2000/svg" xmlns:xlink="http://www.w3.org/1999/xlink" x="0px" y="0px"
	 width="100%" viewBox="0 0 744 359" enable-background="new 0 0 744 359" xml:space="preserve">
<path fill="#FFFFFF" opacity="1.000000" stroke="none" 
	d="
M572.000000,360.000000 
	C381.376404,360.000000 191.252808,360.000000 1.064608,360.000000 
	C1.064608,240.403534 1.064608,120.807037 1.064608,1.105265 
	C248.999985,1.105265 496.999969,1.105265 744.980225,1.105265 
	C744.980225,120.747231 744.980225,240.373611 744.980225,360.000000 
	C687.473633,360.000000 629.986816,360.000000 572.000000,360.000000 
M64.999847,193.767960 
	C62.606243,199.533188 63.084049,205.273438 65.010170,211.927933 
	C65.010170,242.514267 65.010170,273.100616 65.010170,303.789673 
	C262.647247,303.789673 459.637817,303.789673 656.640198,303.789673 
	C656.640198,221.409515 656.640198,139.240601 656.640198,56.999550 
	C655.115845,56.999550 653.951660,56.998978 652.787476,56.999634 
	C564.321716,57.049652 475.855988,57.111637 387.390259,57.145531 
	C332.078491,57.166721 276.766693,57.145012 221.454910,57.143791 
	C205.298996,57.143436 189.143082,57.147308 172.244492,56.987213 
	C166.390137,55.325073 160.563751,52.353954 154.676575,52.228142 
	C129.636475,51.693008 104.578384,51.996677 79.526871,52.011673 
	C78.153130,52.012493 76.779480,52.172165 75.091835,52.277489 
	C76.632362,54.094906 77.799690,55.472057 78.047783,56.988811 
	C73.785851,56.988811 69.523911,56.988811 64.999550,56.988811 
	C64.999550,59.638496 64.997337,61.768776 64.999878,63.899044 
	C65.051201,106.922447 65.103065,149.945847 64.999847,193.767960 
z"/>
<path fill="#000000" opacity="1.000000" stroke="none" 
	d="
M172.987167,57.149242 
	C189.143082,57.147308 205.298996,57.143436 221.454910,57.143791 
	C276.766693,57.145012 332.078491,57.166721 387.390259,57.145531 
	C475.855988,57.111637 564.321716,57.049652 652.787476,56.999634 
	C653.951660,56.998978 655.115845,56.999550 656.640198,56.999550 
	C656.640198,139.240601 656.640198,221.409515 656.640198,303.789673 
	C459.637817,303.789673 262.647247,303.789673 65.010170,303.789673 
	C65.010170,273.100616 65.010170,242.514267 65.374367,211.619675 
	C72.959801,222.642151 84.772766,224.576416 96.459999,216.110733 
	C103.370277,211.105255 106.026115,203.857666 104.801697,195.696182 
	C103.603012,187.706100 98.530418,182.092377 90.585724,180.434174 
	C82.400551,178.725769 72.922974,179.610931 65.154816,192.969254 
	C65.103065,149.945847 65.051201,106.922447 64.999878,63.899044 
	C64.997337,61.768776 64.999550,59.638496 64.999550,56.988811 
	C69.523911,56.988811 73.785851,56.988811 78.821564,57.062927 
	C82.360771,60.217278 85.069336,63.350925 87.903099,66.366943 
	C94.386467,73.267281 101.233444,79.856728 107.302818,87.100258 
	C109.752190,90.023468 111.934631,91.151001 115.576439,91.072891 
	C125.399384,90.862183 135.240509,90.742104 145.051254,91.147217 
	C148.297546,91.281250 151.942291,92.462135 154.581940,94.328346 
	C159.812378,98.026215 161.067734,103.721054 159.003281,109.714333 
	C156.575577,116.762161 151.302078,120.976112 144.413528,120.994995 
	C121.094284,121.058876 97.774773,121.019585 74.455368,121.036591 
	C72.900414,121.037720 71.345558,121.179474 69.070961,121.291161 
	C76.843811,129.869003 84.129074,137.773911 91.263847,145.812378 
	C103.574814,159.682663 115.774750,173.651428 128.055084,187.549011 
	C136.171692,196.734512 144.587189,205.671280 152.350266,215.144394 
	C154.675278,217.981537 156.730515,218.990021 160.155960,218.960297 
	C175.478989,218.827332 190.803833,218.902496 206.128021,218.902512 
	C207.507996,218.902512 208.887970,218.902512 211.430679,218.902512 
	C192.390106,198.470001 174.228958,178.981232 155.676102,159.072098 
	C168.386627,154.571136 178.994858,148.053024 186.973816,137.588806 
	C197.484924,123.803741 201.280914,108.531235 198.140640,91.509293 
	C195.281723,76.012451 185.966187,65.239159 172.987167,57.149242 
M472.216553,218.997742 
	C473.838013,218.997742 475.459503,218.997742 477.080963,218.997742 
	C477.079437,218.751190 477.077942,218.504654 477.076416,218.258102 
	C463.041840,218.258102 449.007263,218.258102 434.972687,218.258102 
	C434.970459,218.504608 434.968231,218.751129 434.966003,218.997635 
	C447.072723,218.997635 459.179413,218.997635 472.216553,218.997742 
M345.535706,218.998169 
	C355.295898,218.998169 365.056091,218.998169 374.816315,218.998169 
	C374.810364,218.777115 374.804413,218.556046 374.798462,218.334991 
	C361.584808,218.334991 348.371185,218.334991 335.157532,218.334991 
	C335.155975,218.556046 335.154449,218.777115 335.152893,218.998169 
	C338.286255,218.998169 341.419617,218.998169 345.535706,218.998169 
M258.523560,218.997955 
	C266.977631,218.997955 275.431702,218.997955 283.885773,218.997955 
	C283.879578,218.773193 283.873413,218.548447 283.867218,218.323685 
	C271.629089,218.323685 259.390961,218.323685 247.152847,218.323685 
	C247.150955,218.548431 247.149078,218.773193 247.147186,218.997940 
	C250.610184,218.997940 254.073196,218.997940 258.523560,218.997955 
z"/>
<path fill="#2E79BC" opacity="1.000000" stroke="none" 
	d="
M172.615829,57.068230 
	C185.966187,65.239159 195.281723,76.012451 198.140640,91.509293 
	C201.280914,108.531235 197.484924,123.803741 186.973816,137.588806 
	C178.994858,148.053024 168.386627,154.571136 155.676102,159.072098 
	C174.228958,178.981232 192.390106,198.470001 211.430679,218.902512 
	C208.887970,218.902512 207.507996,218.902512 206.128021,218.902512 
	C190.803833,218.902496 175.478989,218.827332 160.155960,218.960297 
	C156.730515,218.990021 154.675278,217.981537 152.350266,215.144394 
	C144.587189,205.671280 136.171692,196.734512 128.055084,187.549011 
	C115.774750,173.651428 103.574814,159.682663 91.263847,145.812378 
	C84.129074,137.773911 76.843811,129.869003 69.070961,121.291161 
	C71.345558,121.179474 72.900414,121.037720 74.455368,121.036591 
	C97.774773,121.019585 121.094284,121.058876 144.413528,120.994995 
	C151.302078,120.976112 156.575577,116.762161 159.003281,109.714333 
	C161.067734,103.721054 159.812378,98.026215 154.581940,94.328346 
	C151.942291,92.462135 148.297546,91.281250 145.051254,91.147217 
	C135.240509,90.742104 125.399384,90.862183 115.576439,91.072891 
	C111.934631,91.151001 109.752190,90.023468 107.302818,87.100258 
	C101.233444,79.856728 94.386467,73.267281 87.903099,66.366943 
	C85.069336,63.350925 82.360771,60.217278 79.281189,56.993126 
	C77.799690,55.472057 76.632362,54.094906 75.091835,52.277489 
	C76.779480,52.172165 78.153130,52.012493 79.526871,52.011673 
	C104.578384,51.996677 129.636475,51.693008 154.676575,52.228142 
	C160.563751,52.353954 166.390137,55.325073 172.615829,57.068230 
z"/>
<path fill="#2E79BC" opacity="1.000000" stroke="none" 
	d="
M65.077332,193.368607 
	C72.922974,179.610931 82.400551,178.725769 90.585724,180.434174 
	C98.530418,182.092377 103.603012,187.706100 104.801697,195.696182 
	C106.026115,203.857666 103.370277,211.105255 96.459999,216.110733 
	C84.772766,224.576416 72.959801,222.642151 65.444206,211.155640 
	C63.084049,205.273438 62.606243,199.533188 65.077332,193.368607 
z"/>
<path fill="#202020" opacity="1.000000" stroke="none" 
	d="
M471.751343,218.997681 
	C459.179413,218.997635 447.072723,218.997635 434.966003,218.997635 
	C434.968231,218.751129 434.970459,218.504608 434.972687,218.258102 
	C449.007263,218.258102 463.041840,218.258102 477.076416,218.258102 
	C477.077942,218.504654 477.079437,218.751190 477.080963,218.997742 
	C475.459503,218.997742 473.838013,218.997742 471.751343,218.997681 
z"/>
<path fill="#202020" opacity="1.000000" stroke="none" 
	d="
M345.044342,218.998169 
	C341.419617,218.998169 338.286255,218.998169 335.152893,218.998169 
	C335.154449,218.777115 335.155975,218.556046 335.157532,218.334991 
	C348.371185,218.334991 361.584808,218.334991 374.798462,218.334991 
	C374.804413,218.556046 374.810364,218.777115 374.816315,218.998169 
	C365.056091,218.998169 355.295898,218.998169 345.044342,218.998169 
z"/>
<path fill="#202020" opacity="1.000000" stroke="none" 
	d="
M258.029877,218.997955 
	C254.073196,218.997940 250.610184,218.997940 247.147186,218.997940 
	C247.149078,218.773193 247.150955,218.548431 247.152847,218.323685 
	C259.390961,218.323685 271.629089,218.323685 283.867218,218.323685 
	C283.873413,218.548447 283.879578,218.773193 283.885773,218.997955 
	C275.431702,218.997955 266.977631,218.997955 258.029877,218.997955 
z"/>
</svg>